<?xml version="1.0" encoding="UTF-8"?>
<svg width="164px" height="175px" viewBox="0 0 164 175" version="1.1" xmlns="http://www.w3.org/2000/svg" xmlns:xlink="http://www.w3.org/1999/xlink">
    <title>cat</title>
    <g id="Page-1" stroke="none" stroke-width="1" fill="none" fill-rule="evenodd">
        <g id="cat" fill-rule="nonzero">
            <g id="Group" fill="#020203">
                <path d="M134.5,0.2 C134.3,0.2 134,0.3 133.8,0.4 C133.6,0.5 133.5,0.6 133.4,0.8 L133.3,0.9 C133.1,1.1 133,1.3 132.8,1.5 C132.6,1.8 132.3,2.2 132.1,2.5 C131.9,2.8 131.8,3.1 131.6,3.4 L131.5,3.6 C131.2,4.3 130.8,5 130.5,5.7 C130.3,6.2 130,6.6 129.7,7.1 L129.3,7.8 L129.1,8.1 C128.8,8.6 128.6,9 128.4,9.5 C128.2,9.8 128.1,10.2 128,10.6 L127.5,10.4 C126.9,10.2 126.3,10 125.6,9.9 C124.6,9.7 123.5,9.5 122.4,9.4 C121.2,9.3 120,9.2 118.8,9.2 L118.5,9.2 C118.2,9.2 117.9,9.2 117.5,9.2 C117.4,9.2 117.3,9.2 117.2,9.2 C117,9.2 116.8,9.2 116.5,9.2 C116.2,9.2 115.8,9.2 115.5,9.2 C113.2,9.3 111.3,9.5 109.6,9.8 C108.8,10 108,10.2 107.1,10.3 L106.3,10.5 C106.1,10.6 105.9,10.6 105.6,10.7 C105.4,10.5 105.3,10.3 105.1,10.1 L104.9,9.9 C104.5,9.5 104.2,9.2 103.8,8.9 C103.2,8.4 102.5,7.9 101.8,7.4 L101,6.8 C100.4,6.4 99.9,5.9 99.3,5.5 C99,5.3 98.7,5 98.4,4.8 C97.5,4.1 96.7,3.4 95.9,2.5 C95.8,2.4 95.7,2.4 95.5,2.4 C95.3,2.4 95.2,2.5 95.1,2.6 C95,2.5 94.9,2.4 94.8,2.4 C94.7,2.3 94.5,2.3 94.4,2.3 C94.1,2.3 93.9,2.4 93.8,2.5 C93.6,2.6 93.5,2.7 93.4,2.8 L93.3,2.9 C93.2,2.9 93.2,3 93.2,3.1 C93.1,3.2 93.1,3.3 93,3.3 C92.7,3.7 92.5,4 92.3,4.3 C92,4.8 91.8,5.4 91.5,6.1 L91.4,6.4 C91.2,7 91,7.6 90.8,8.2 C90.4,9.4 90.2,10.6 89.9,11.7 L89.8,12.3 L89.7,12.9 C89.5,14 89.2,15.1 89.1,16.3 C89.1,16.6 89,16.9 89,17.1 C88.9,17.5 88.9,17.9 88.9,18.3 C88.8,19.1 88.8,19.9 88.7,20.7 L88.7,20.7 L88.7,20.7 L88.7,20.7 C88.7,21.1 88.7,21.5 88.6,21.8 C88.6,22.4 88.5,22.9 88.5,23.5 L88.5,24 L88.4,25 L88.4,24.9 C88.4,25.1 88.4,25.3 88.4,25.4 L88.4,25.9 L88.4,26.5 L88.4,26.2 C88.3,26.7 88.3,27.2 88.2,27.7 L88.1,28.3 C88,29.1 88,29.8 87.8,30.6 L87.7,31.4 C87.6,31.9 87.6,32.3 87.5,32.8 L87.4,33.5 C87.3,34 87.3,34.5 87.2,35 C87,36.3 86.8,37.9 86.4,39.4 C86,40.9 85.6,42.3 85.2,43.7 C84.8,45 84.2,46.4 83.8,47.6 C83.4,48.7 82.8,50.2 82.1,51.6 C81.8,52.3 81.4,53 81.1,53.7 C80.9,54.1 80.7,54.6 80.4,55 L80.1,55.6 L79.9,56.1 C79.6,56.6 79.4,57.2 79.1,57.7 C78.7,58.4 78.3,59.1 78,59.7 L77.7,60.3 C77.5,60.7 77.3,61.1 77,61.5 C76.6,62.1 76.3,62.8 75.9,63.4 L75.7,63.8 C75.4,64.3 75.1,64.8 74.9,65.3 C74.6,65.9 74.3,66.5 74,67.1 C73.7,67.8 73.3,68.5 72.9,69.2 C72.7,69.6 72.4,70 72.2,70.5 L71.8,71.1 L71.4,71.8 C70.8,72.8 70.2,73.9 69.6,74.9 C68.4,77.2 66.9,80 65.5,82.8 C65,83.8 64.5,84.9 64.1,86 L63.8,86.8 C63.3,88 62.7,89.3 62,90.9 L62,91 C61.4,92.3 60.8,93.6 60.3,95 C59.7,96.4 59.2,97.8 58.7,99.2 C57.7,101.8 56.6,104.9 55.8,108 C55.5,109.2 55.1,110.4 54.8,111.6 C54.3,113.2 53.8,114.9 53.5,116.6 L53.3,117.4 C53.2,117.9 53.1,118.4 53,118.8 L52.9,119.4 C52.8,119.9 52.6,120.5 52.5,121 C52.2,122.5 51.9,123.9 51.6,125.4 L51.4,126.4 C51.2,127.5 51,128.6 50.8,129.8 C50.7,130.5 50.6,131.3 50.5,132 C50.4,132.7 50.4,133.4 50.4,134 L50.4,134.3 C50.4,135 50.4,135.7 50.4,136.5 C50.4,136.8 50.4,137.1 50.4,137.4 C50.4,137.8 50.4,138.2 50.4,138.6 C50.4,139.8 50.5,141.3 50.6,142.8 C50.7,143.8 50.8,144.9 51.1,146 C51.2,146.3 51.2,146.6 51.2,146.8 C50.9,146.9 50.6,146.9 50.4,147 C50.2,147 49.9,147.1 49.7,147.1 C49.6,147.1 49.4,147.1 49.3,147.1 C49.2,147.1 49,147.1 48.9,147.1 C47.4,147 45.9,146.7 44.4,146.4 L43.3,146.2 C42.7,146.1 42.1,146 41.4,145.8 L40.5,145.6 C39.6,145.4 38.6,145.1 37.9,144.9 C37.4,144.7 36.9,144.5 36.4,144.3 C35.7,144 35.1,143.6 34.6,143.3 C33.6,142.6 32.7,141.8 31.9,141.1 C31.1,140.4 30.4,139.6 29.8,139 C28.8,137.9 28,136.9 27.3,135.9 C27,135.4 26.6,134.9 26.3,134.4 C26,133.9 25.7,133.3 25.4,132.8 L25.4,132.7 L25.4,132.7 C24.8,131.5 24.3,130.2 23.7,128.7 C23.5,128.1 23.2,127.4 23.1,126.8 C22.9,126.1 22.8,125.5 22.6,124.8 C22.3,123.1 22.1,121.3 22,119.8 C21.9,119 21.9,118.2 21.9,117.4 C21.9,116.7 21.9,115.9 21.9,114.9 L21.9,114.9 C22,113.6 22.1,112.4 22.2,111.1 C22.3,109.7 22.4,108.4 22.6,107.1 C23,104.3 23.5,101.6 24,98.9 C24.3,97.6 24.6,96.4 25,95.2 L25.1,94.8 C25.4,93.7 25.8,92.6 26.1,91.5 L26.3,90.9 C26.7,89.6 27.1,88.3 27.5,87 C27.7,86.4 27.8,85.8 28,85.2 C28.2,84.5 28.4,83.9 28.6,83.2 C28.9,82.2 29.1,81.1 29.3,80.1 L29.5,79.3 C29.8,78.1 30,76.9 30.2,75.6 L30.3,75.2 C30.8,72.8 31,70.1 31,66.9 C31,65.5 30.9,64.2 30.8,62.9 C30.7,61.3 30.5,60 30.2,58.8 C30,58.1 29.9,57.4 29.7,56.7 C29.5,56.1 29.3,55.5 29.1,55 L29,54.8 C28.9,54.6 28.8,54.3 28.7,54.1 L28.6,54 C28.5,53.7 28.3,53.4 28.2,53.2 L28,53 C27.5,52.1 27,51.3 26.5,50.6 L26.4,50.4 C26.1,50.1 25.9,49.7 25.6,49.4 C25.2,48.9 24.7,48.5 24.2,48 C23.3,47.1 22.3,46.5 21.4,46 C20.7,45.7 20.1,45.4 19.5,45.2 C18.8,44.9 18.1,44.7 17.5,44.6 C16.7,44.4 15.8,44.2 14.9,44.1 C14.3,44 13.7,44 13.1,44 C12.8,44 12.5,44 12.2,44 C11.6,44 11,44.1 10.5,44.2 C10.1,44.3 9.7,44.4 9.3,44.5 C8.6,44.7 8,44.9 7.4,45.2 C6.5,45.6 5.7,46.1 4.8,46.7 C4.4,47 4.1,47.3 3.8,47.6 C3.6,47.8 3.5,48 3.4,48.2 C3.2,48.5 3.1,48.7 2.9,48.9 C2.3,49.8 2,50.7 1.8,51.4 C1.7,51.8 1.6,52.1 1.5,52.5 C1.4,53.1 1.4,53.7 1.4,54.2 C1.4,55.5 1.6,56.8 1.8,58.1 C2,59.5 2.2,60.8 2.3,62.1 C2.4,63.2 2.6,64.4 2.7,65.5 C2.9,67 3.1,68.6 3.2,70.1 C3.3,71.5 3.5,72.9 3.6,74.2 C3.7,74.8 3.8,75.5 3.8,76.1 C3.9,76.8 4,77.4 4,78.1 L4.1,78.7 C4.3,80.2 4.4,81.8 4.5,83.3 C4.6,84.9 4.6,86.6 4.5,88.5 C4.5,89 4.4,89.6 4.4,90.2 C4.3,90.9 4.3,91.6 4.2,92.3 L4,93.5 C3.9,94.4 3.8,95.2 3.6,96.1 C3.2,98.5 2.8,100.9 2.3,103.2 L2.1,104 L2,104.6 C1.8,105.8 1.6,107 1.3,108.2 C1,109.5 0.8,110.9 0.6,112.2 C0.4,113.6 0.2,115 0.2,116.4 C0.1,117.8 0.1,119.1 0.1,120.5 C0.1,121.7 0.1,122.9 0.2,124.5 C0.2,125.2 0.3,125.9 0.4,126.6 C0.4,127.1 0.5,127.6 0.6,128.1 L0.7,128.7 C0.9,129.9 1.2,131.1 1.4,132.2 L1.5,132.8 L1.5,133 C1.8,134.2 2,135.4 2.4,136.6 C2.8,137.9 3.3,139.2 3.8,140.6 C4.3,141.8 4.8,143.1 5.4,144.4 C5.5,144.7 5.6,144.9 5.8,145.2 C5.9,145.5 6.1,145.9 6.2,146.2 C6.5,146.9 6.9,147.6 7.2,148.3 C7.8,149.5 8.6,150.7 9.4,151.8 C10.1,152.9 10.9,154 11.7,155.1 C12.5,156.3 13.3,157.3 14.1,158.3 C14.5,158.8 15,159.3 15.5,159.9 C16,160.4 16.5,160.9 17,161.4 C17.9,162.3 18.9,163.1 19.8,163.9 L20,164 L20.4,164.3 C20.8,164.6 21.1,164.9 21.5,165.2 C22,165.6 22.4,165.9 22.9,166.3 L23.1,166.5 C24.3,167.4 25.4,168.1 26.5,168.7 C26.9,168.9 27.3,169.1 27.7,169.3 L28.3,169.6 C28.9,169.9 29.5,170.2 30.1,170.5 C30.7,170.8 31.3,171.1 31.9,171.3 C32.2,171.4 32.4,171.5 32.7,171.6 L33.1,171.7 C33.4,171.8 33.7,171.9 34,172 C35.2,172.4 36.5,172.6 38,172.9 C38.7,173 39.4,173.1 40,173.2 C40.3,173.2 40.7,173.3 41,173.3 C41.4,173.5 41.9,173.6 42.5,173.7 C43.2,173.8 43.9,173.8 44.5,173.8 L44.9,173.8 C45.7,173.8 46.5,173.8 47.3,173.9 C48.7,173.9 50.1,174 51.5,174 L51.4,174 C52.6,174 53.8,174.1 55,174.1 C55.4,174.1 55.7,174.1 56.1,174.1 C56.8,174.1 57.5,174.1 58.2,174.1 L58.6,174.1 C59.2,174.1 59.8,174.1 60.4,174 C60.8,174 61.1,174 61.5,174 L62.1,174 C62.7,174 63.3,174 63.9,173.9 C64.3,173.9 64.7,173.9 65.1,173.9 C65.7,173.9 66.4,173.9 67,173.9 C67.5,173.9 68,173.9 68.5,173.9 C69.5,173.9 70.6,173.8 71.7,173.8 C72.4,173.8 73,173.7 73.7,173.6 L74.1,173.6 L74.4,173.6 L75.3,173.6 C76.3,173.6 77.2,173.6 78.1,173.6 L79,173.6 C79.9,173.6 80.7,173.6 81.6,173.5 L82.9,173.5 L85.2,173.5 L88.9,173.5 L92.6,173.5 C94.2,173.5 95.8,173.5 97.3,173.4 L99.9,173.3 C100.6,173.3 101.2,173.3 101.9,173.3 C103.1,173.3 104.4,173.3 105.6,173.3 L107.2,173.3 C107.5,173.3 107.9,173.3 108.2,173.3 C109,173.3 109.8,173.3 110.6,173.3 L111,173.3 C112,173.3 113,173.3 114,173.3 L114.4,173.3 L115.8,173.3 C117.9,173.3 119.9,173.3 121.7,173.2 L122.7,173.2 C123.5,173.2 124.4,173.1 125.2,173.1 L126.4,173.1 C127,173.1 127.6,173.1 128.3,173.1 L128.8,173.1 L130,173.1 C130.8,173.1 131.6,173.1 132.3,173.1 L133.7,173.1 C134.5,173.1 135.2,173.1 136,173 L137.3,173 C138.1,173 138.9,172.9 139.6,172.9 L140,172.9 C140.7,172.9 141.4,172.9 142.1,172.9 L142.9,172.9 L143.1,172.9 C143.3,172.9 143.5,172.9 143.7,172.9 C143.9,172.9 144.1,172.9 144.3,172.9 L145,172.9 C145,172.9 145.1,173 145.1,173 C145.3,173.2 145.6,173.3 145.9,173.3 C146.3,173.3 146.5,173.2 146.7,172.9 C147.3,172.3 147.8,171.7 148.3,171.1 C148.8,170.4 149.3,169.8 149.6,169.2 C150.1,168.4 150.4,167.6 150.7,167 C151,166.2 151.4,165.3 151.7,164.3 L151.6,164.6 C152.1,163.1 152.7,161.4 153.1,159.5 L153.2,159 C153.4,158.4 153.5,157.7 153.6,157.1 C153.7,156.3 153.9,155.4 154,154.6 C154.1,154 154.1,153.5 154.2,152.9 L154.3,152 C154.4,151 154.5,150.1 154.5,149.1 C154.6,147.5 154.6,145.8 154.5,144.3 L154.5,144.1 C154.5,142.3 154.4,140.6 154.2,138.9 C154.1,137.4 153.9,135.7 153.5,133.7 C153.3,132.5 153.1,131.3 152.9,130.1 L152.7,128.6 C152.5,127.3 152.2,125.9 152,124.6 L151.8,123.7 C151.7,123.2 151.6,122.7 151.5,122.2 C151.4,121.5 151.2,120.8 151.1,120.1 C150.7,118.4 150.3,116.8 149.9,115.2 C149.7,114.3 149.5,113.5 149.2,112.6 C149.1,112.2 149,111.7 148.9,111.3 L148.8,110.8 C148.7,110.2 148.5,109.5 148.3,108.9 L148.1,108.2 C147.9,107.4 147.7,106.6 147.5,105.7 C147.5,105.6 147.5,105.5 147.5,105.5 C147.2,104.3 147,103.1 146.8,101.9 L146.6,100.5 C146.5,99.9 146.4,99.3 146.3,98.7 L146.2,98 C146.1,97.7 146.1,97.3 146,97 C145.9,96.4 145.8,95.9 145.7,95.3 C145.6,94.5 145.5,93.6 145.3,92.8 C145.2,92 145.1,91.1 144.9,90.3 C144.8,89.4 144.6,88.5 144.5,87.6 C144.4,86.8 144.3,86 144.1,85.2 C144,84.6 143.9,84 143.8,83.4 L143.7,82.7 L143.6,82 C143.5,81.3 143.4,80.7 143.3,80 L143.3,79.7 C143.1,78 142.9,76.3 142.8,74.6 C142.7,72.9 142.6,71.1 142.5,69.5 L142.4,67.7 C142.4,66.5 142.3,65.3 142.3,64.1 C142.3,63.4 142.3,62.6 142.3,61.9 C142.3,61.2 142.3,60.4 142.3,59.7 L142.3,58.5 C142.3,57.5 142.3,56.4 142.3,55.4 C142.3,54.6 142.3,53.7 142.4,52.9 C142.4,52.3 142.4,51.7 142.5,51.1 L142.5,50.3 C142.5,49.9 142.5,49.4 142.5,49 C142.5,48.3 142.6,47.6 142.6,46.9 C142.6,46.9 142.6,46.8 142.6,46.8 C142.6,46.8 142.6,46.7 142.6,46.7 C142.7,46 142.7,45.3 142.8,44.6 C142.9,43.6 142.9,42.6 143,41.6 L143,41.9 C143.1,40.6 143.2,39.2 143.3,37.9 C143.5,35.4 143.7,32.8 143.8,30.2 L143.8,30.1 L143.8,30 L143.8,30.3 L143.9,28.8 L144,27.2 L144,27.2 C144,27.2 144,27.2 144,27.2 L144,27.2 L144,27.1 L144,27.1 C144.1,25.6 144.1,24 144.1,22.3 C144.1,20.7 143.9,19 143.7,17.5 C143.6,16.7 143.5,15.9 143.3,15.1 C143.1,14.2 142.9,13.3 142.6,12.4 C142.5,12 142.4,11.6 142.3,11.2 C142.2,10.9 142.1,10.6 142,10.3 L141.9,10 C141.6,9.3 141.3,8.5 141,7.8 C141,7.8 141,7.7 141,7.7 C140.7,7.1 140.3,6.3 139.8,5.6 C139.4,5 139,4.5 138.6,3.9 C138.1,3.2 137.6,2.6 137,2 C136.8,1.7 136.5,1.5 136.3,1.3 C135.9,0.9 135.6,0.7 135.2,0.6 C134.7,0.3 134.6,0.2 134.5,0.2 L134.5,0.2 L134.5,0.2 Z M51.7,171.6 C52.1,171.5 52.5,171.4 52.9,171.3 C54.2,171 55.8,170.8 57.3,170.7 C58,170.7 58.6,170.6 59.3,170.6 C60.1,170.6 61,170.6 61.8,170.7 L61.5,170.7 C62.6,170.8 63.7,171 64.8,171.1 C65.5,171.2 66.2,171.4 66.9,171.6 C66.4,171.6 65.9,171.6 65.5,171.6 L64.4,171.7 C63.6,171.7 62.8,171.8 62.1,171.8 L61.8,171.8 C61.2,171.8 60.6,171.8 60,171.9 C59.4,171.9 58.8,171.9 58.1,171.9 L57.6,171.9 C57.3,171.9 57.1,171.9 56.8,171.9 C56.1,171.8 55.5,171.8 54.8,171.8 C54.3,171.8 53.7,171.8 53.2,171.8 L52.2,171.8 L51.5,171.8 L50.8,171.8 L51,171.8 L51.4,171.7 L51.7,171.6 C51.6,171.6 51.6,171.6 51.7,171.6 C51.6,171.7 51.7,171.7 51.7,171.6 C51.7,171.7 51.7,171.7 51.7,171.6 L51.7,171.6 L51.7,171.6 L51.7,171.6 L51.7,171.6 Z" id="Shape"></path>
                <path d="M52.7,167 C52.5,167.1 52.4,167.2 52.3,167.3 C52.2,167.6 52.3,168.1 52.6,168.2 C53.3,168.4 53.9,168.7 54.6,168.8 C55,168.9 55.4,169 55.8,169 C55.4,169.1 55,169.1 54.6,169.2 C54.3,169.3 54,169.3 53.7,169.4 C53.6,169.4 53.4,169.5 53.3,169.5 C53,169.6 52.7,169.6 52.5,169.8 C52.4,169.8 52.4,169.9 52.3,169.9 C52.3,169.9 52.2,169.9 52.2,169.9 C51.9,169.9 51.8,170 51.5,170.2 C51.3,170.3 51.2,170.5 51.2,170.7 C51.2,170.9 51.2,171.2 51.4,171.4 C51.3,171.6 51.2,171.8 51.3,172 C51.3,172.4 51.6,172.7 52,172.8 C52.6,172.9 53.1,172.9 53.7,172.9 C54,172.9 54.4,172.9 54.7,172.9 C55,172.9 55.3,172.9 55.6,172.9 C55.6,172.9 55.7,172.9 55.7,173 C55.9,173.1 56.2,173.1 56.5,173.1 C56.7,173.1 56.9,173.1 57,173.1 C57.3,173.1 57.6,173 58,173 C58.3,173 58.7,172.9 59,172.9 C59.4,172.9 59.8,172.9 60.1,172.9 C61.4,172.8 62.6,172.8 63.9,172.7 C64.4,172.7 64.8,172.6 65.3,172.6 C65.7,172.6 66.1,172.6 66.5,172.5 C67.1,172.5 67.6,172.5 68.2,172.4 C68.3,172.4 68.4,172.3 68.5,172.3 C69.1,172.3 69.7,172.2 70.3,172.2 C70.6,172.2 70.9,172.2 71.1,172.1 C71.5,172 71.9,171.6 71.8,171.2 C71.7,170.7 71.3,170.4 70.9,170.5 C70.3,170.6 69.6,170.6 69,170.6 C69,170.4 68.9,170.3 68.8,170.2 C68.7,170.1 68.5,169.9 68.4,169.8 C68.2,169.7 68.1,169.7 67.9,169.6 C67.7,169.6 67.5,169.6 67.4,169.5 C67.2,169.5 67,169.5 66.8,169.4 C66.1,169.3 65.3,169.3 64.5,169.3 C64.5,169.3 64.5,169.3 64.5,169.3 C64.6,169.3 64.6,169.3 64.7,169.3 C65.1,169.3 65.6,169.3 66,169.3 C66.2,169.3 66.4,169.3 66.6,169.3 C66.9,169.3 67.3,169.3 67.6,169.2 C67.7,169.2 67.8,169.1 68,169.1 C68.2,169 68.3,168.8 68.3,168.6 C68.4,168.3 68.2,168 67.9,167.8 C67.5,167.6 67,167.7 66.5,167.7 C66.2,167.7 65.9,167.7 65.6,167.8 C65,167.9 64.4,167.9 63.9,168 C63.9,168 63.8,168 63.8,168 C63.5,168 63.1,168 62.8,168 C61.2,168.1 59.6,168.1 58,168.1 C57.7,168.1 57.4,168.1 57,168.1 C56.1,168.1 55.1,167.9 54.2,167.7 C54.3,167.7 54.3,167.7 54.4,167.8 C54,167.7 53.6,167.5 53.2,167.4 C53.1,167.4 53,167.3 52.9,167.3 C52.8,167 52.8,167 52.7,167 L52.7,167 L52.7,167 Z" id="Path"></path>
                <path d="M138.8,171.6 C138.6,171.6 138.5,171.8 138.5,171.9 C138.5,172.1 138.7,172.2 138.8,172.2 C140,172.2 141.2,172.2 142.4,172.3 C142.9,172.3 143.3,172.4 143.8,172.4 C144,172.4 144.3,172.4 144.5,172.4 C144.8,172.4 145.1,172.4 145.4,172.4 C145.6,172.4 145.7,172.2 145.7,172.1 C145.7,171.9 145.5,171.8 145.3,171.8 C145,171.8 144.7,171.8 144.4,171.8 C144.2,171.8 143.9,171.8 143.7,171.8 C143.2,171.8 142.7,171.7 142.2,171.7 C141.1,171.7 140,171.6 139,171.6 C139.1,171.6 138.9,171.6 138.8,171.6 L138.8,171.6 L138.8,171.6 Z" id="Path"></path>
                <path d="M138,172 C138,172.1 138.1,172.3 138.2,172.3 C138.3,172.4 138.4,172.4 138.6,172.4 C139.3,172.4 139.9,172.5 140.6,172.5 C141.2,172.5 141.7,172.6 142.3,172.6 C142.9,172.6 143.5,172.6 144,172.6 C144.7,172.6 145.3,172.6 146,172.5 C146.3,172.5 146.5,172.3 146.5,172 C146.5,171.7 146.3,171.5 146,171.5 C145.4,171.5 144.7,171.6 144.1,171.6 C143.5,171.6 142.9,171.6 142.4,171.6 C141.8,171.6 141.2,171.5 140.6,171.5 C139.9,171.5 139.3,171.4 138.6,171.4 C138.6,171.4 138.6,171.4 138.6,171.4 C138.2,171.5 138,171.8 138,172 L138,172 L138,172 Z" id="Path"></path>
                <path d="M145.7,171.7 C145,171.8 144.2,171.8 143.5,171.9 C142.8,171.9 142.1,171.9 141.5,171.9 C140.1,171.9 138.7,171.9 137.4,172 C137.1,172 136.9,172.2 136.9,172.5 C136.9,172.8 137.1,173 137.4,173 C138.1,173 138.8,173 139.5,173 C140.2,173 140.9,173 141.5,173 C142.2,173 142.9,173 143.5,173 C144.2,173 145,172.9 145.7,172.8 C145.8,172.8 146,172.7 146.1,172.6 C146.2,172.5 146.2,172.4 146.2,172.2 C146.2,172.1 146.1,171.9 146,171.8 C146,171.8 145.8,171.7 145.7,171.7 C145.7,171.7 145.7,171.7 145.7,171.7 L145.7,171.7 L145.7,171.7 Z" id="Path"></path>
                <path d="M155.3,28.9 C154.9,29 154.6,29.1 154.2,29.2 C154.3,29.2 154.4,29.1 154.5,29.1 C153.3,29.4 152.1,29.7 150.9,29.9 C149.7,30.1 148.5,30.4 147.3,30.7 C145.7,31.1 144,31.6 142.5,32.3 C141.6,32.7 140.7,33.2 139.9,33.7 C139.4,34 138.8,34.3 138.3,34.6 C138.1,34.7 137.8,34.9 137.6,35 C137.4,35.1 137.2,35.5 137.2,35.8 C137.2,36.1 137.2,36.4 137.4,36.6 C137.6,36.8 137.9,37 138.2,37 C138.5,37 138.7,36.9 139,36.8 C139.2,36.7 139.3,36.6 139.5,36.5 C140.4,36 141.2,35.5 142.1,35 C143.1,34.4 144.1,34 145.2,33.7 C145.7,33.5 146.3,33.4 146.8,33.2 C147.4,33 148,32.9 148.7,32.7 C149.6,32.5 150.4,32.3 151.3,32.2 C153,31.9 154.7,31.4 156.4,31 C156.7,30.9 156.9,30.6 157,30.4 C157.1,30.1 157.1,29.8 157,29.6 C156.9,29.3 156.7,29.1 156.4,29 C156.3,28.9 156.1,28.9 156,28.9 C155.6,28.8 155.5,28.8 155.3,28.9 L155.3,28.9 L155.3,28.9 Z" id="Path"></path>
                <path d="M143.9,37.7 C142.7,37.8 141.5,37.9 140.2,38.1 C139.6,38.2 139.2,38.7 139.3,39.3 C139.4,39.9 139.9,40.3 140.5,40.2 C141.7,40 142.9,39.9 144,39.9 C144.6,39.9 145.1,39.9 145.7,39.9 C146.4,39.9 147,40 147.7,40 C148.9,40.1 150.2,40.2 151.4,40.3 C152.7,40.4 153.9,40.5 155.2,40.6 C155.7,40.6 156.2,40.7 156.7,40.7 C157.3,40.7 157.9,40.8 158.5,40.8 C159.7,40.8 160.9,40.8 162.1,40.8 C162.4,40.8 162.7,40.8 162.9,40.6 C163.1,40.4 163.3,40.1 163.3,39.8 C163.3,39.5 163.3,39.2 163.1,39 C162.9,38.8 162.6,38.6 162.3,38.6 C161.7,38.6 161,38.6 160.4,38.6 C160.2,38.6 160,38.6 159.8,38.6 C159.4,38.6 159,38.6 158.6,38.6 C157.4,38.5 156.2,38.5 155,38.4 C152.5,38.2 149.9,38 147.4,37.8 C146.8,37.8 146.2,37.7 145.6,37.7 C145.4,37.7 145.2,37.7 145,37.7 C144.8,37.7 144.5,37.7 144.3,37.7 C144.2,37.7 144,37.7 143.9,37.7 L143.9,37.7 L143.9,37.7 Z" id="Path"></path>
                <path d="M136.8,43.4 C136.6,43.6 136.4,43.9 136.4,44.2 C136.4,44.5 136.4,44.8 136.6,45 C136.8,45.3 137.1,45.4 137.4,45.4 C138.9,45.7 140.4,46.1 141.9,46.4 C142.5,46.6 143.1,46.7 143.7,46.9 C144.3,47.1 144.8,47.3 145.4,47.4 C146.5,47.8 147.5,48.1 148.6,48.5 C149.8,48.9 150.9,49.3 152.1,49.6 C153.3,49.9 154.6,50.3 155.8,50.6 C156.1,50.7 156.3,50.7 156.6,50.6 C156.9,50.5 157.1,50.3 157.2,50 C157.3,49.7 157.3,49.4 157.2,49.2 C157.1,49 156.8,48.7 156.6,48.6 C155.3,48.3 154,48 152.7,47.6 C151.5,47.3 150.3,46.9 149.1,46.5 C148,46.1 146.9,45.8 145.9,45.4 C145.3,45.2 144.7,45 144.2,44.9 C143.5,44.7 142.9,44.5 142.2,44.4 C140.7,44.1 139.2,43.7 137.6,43.4 C137.6,43.4 137.5,43.4 137.5,43.4 C137.3,43.1 137,43.2 136.8,43.4 L136.8,43.4 L136.8,43.4 Z" id="Path"></path>
            </g>
            <g id="Group" transform="translate(15.000000, 7.000000)" fill="#FFFFFF">
                <path d="M80.7,2.6 C80.6,2.6 80.5,2.7 80.5,2.8 C80.5,2.9 80.4,2.9 80.4,3 C80.4,3.1 80.3,3.3 80.3,3.4 C80.3,3.5 80.3,3.7 80.3,3.8 C80.2,4.2 80.2,4.6 80.2,5 C80.1,5.5 80,5.9 80,6.4 C79.9,6.9 79.8,7.3 79.8,7.8 C79.8,8 79.7,8.2 79.7,8.4 C79.7,8.6 79.6,8.9 79.9,9 C80.2,9.1 80.4,9.1 80.6,8.8 C80.6,8.7 80.6,8.7 80.7,8.6 C80.7,8.4 80.8,8.3 80.8,8.1 C80.8,8.1 80.8,8.2 80.8,8.2 C80.9,7.8 81,7.5 81,7.1 C81,7.1 81,7.1 81,7.2 C81.1,6.6 81.3,6 81.5,5.4 C81.6,5.1 81.7,4.8 81.8,4.6 C81.8,4.4 81.9,4.3 82,4.1 C82.2,4.3 82.5,4.6 82.7,4.8 C82.9,5 83.1,5.2 83.3,5.4 C83.5,5.6 83.7,5.8 83.9,6.1 C84.1,6.3 84.5,6.4 84.7,6.2 C84.9,6 85,5.6 84.8,5.4 C84.4,5 84,4.7 83.6,4.4 C83.2,4.1 82.9,3.8 82.5,3.4 C82.3,3.2 82.1,3.1 82,2.9 C81.8,2.7 81.6,2.6 81.4,2.5 C81.3,2.5 81.3,2.5 81.2,2.5 C81.2,2.5 81.2,2.5 81.2,2.5 C80.8,2.5 80.8,2.5 80.7,2.6 L80.7,2.6 L80.7,2.6 Z" id="Path"></path>
                <path d="M120.4,0.3 C120.3,0.3 120.3,0.4 120.3,0.5 C120.3,0.5 120.3,0.6 120.2,0.6 C120,0.9 119.9,1.2 119.7,1.5 C119.5,1.8 119.3,2.1 119.2,2.4 C118.9,3 118.5,3.6 118.2,4.3 C118.1,4.5 118.1,4.7 118.2,4.9 C118.3,5 118.4,5.1 118.5,5.2 C118.6,5.2 118.7,5.2 118.8,5.2 C118.9,5.2 119,5.1 119.1,5.1 C119.2,5 119.2,5 119.3,4.9 C119.3,4.8 119.4,4.8 119.4,4.7 C119.5,4.5 119.6,4.4 119.7,4.2 C119.9,3.9 120,3.6 120.2,3.4 C120.4,3.1 120.6,2.8 120.9,2.5 C121,2.8 121,3.1 121.1,3.4 C121.3,4.2 121.4,5 121.6,5.8 C121.6,6.1 121.9,6.3 122.2,6.2 C122.5,6.1 122.7,5.9 122.6,5.6 C122.5,5 122.4,4.5 122.3,3.9 C122.2,3.4 122.1,2.9 121.9,2.4 C121.8,1.9 121.7,1.4 121.5,0.9 C121.4,0.7 121.3,0.4 121,0.3 C120.9,0.3 120.9,0.3 120.8,0.3 C120.7,0.1 120.5,0.2 120.4,0.3 L120.4,0.3 L120.4,0.3 Z" id="Shape"></path>
                <path d="M103.4,7.4 C103.4,7.7 103.4,8 103.3,8.3 C103.3,8.6 103.5,8.8 103.7,8.8 C104,8.8 104.2,8.6 104.2,8.4 C104.2,8.1 104.2,7.8 104.3,7.5 C104.3,7.2 104.1,7 103.9,7 C103.9,7 103.9,7 103.9,7 C103.7,6.9 103.5,7.1 103.4,7.4 L103.4,7.4 L103.4,7.4 Z" id="Path"></path>
                <path d="M107.5,6.8 C107.2,6.9 107,7.2 107,7.5 C107,7.8 107.1,8.2 107.2,8.5 C107.3,8.8 107.6,9 107.9,9 C108.2,8.9 108.4,8.6 108.4,8.3 C108.3,8 108.3,7.6 108.2,7.3 C108.2,7 107.9,6.8 107.6,6.8 C107.6,6.8 107.6,6.8 107.5,6.8 L107.5,6.8 L107.5,6.8 Z" id="Path"></path>
                <path d="M110.9,9.5 C110.8,9.6 110.7,9.8 110.7,9.9 C110.7,10.3 110.7,10.7 110.7,11.1 C110.7,11.4 110.9,11.7 111.3,11.8 C111.6,11.8 112,11.6 112,11.2 C112,10.8 112,10.4 112,10 C112,9.8 112,9.7 111.9,9.5 C111.8,9.4 111.6,9.3 111.5,9.3 C111.5,9.3 111.5,9.3 111.5,9.3 C111.2,9.3 111,9.4 110.9,9.5 L110.9,9.5 L110.9,9.5 Z" id="Path"></path>
                <path d="M107.6,11.7 C107.4,11.7 107.3,11.8 107.2,12 C107.1,12.1 107.1,12.3 107.1,12.5 C107.1,12.9 107.2,13.2 107.2,13.5 C107.2,13.8 107.6,14.1 107.9,14 C108.1,14 108.2,13.9 108.3,13.7 C108.4,13.5 108.4,13.4 108.4,13.2 C108.4,12.9 108.3,12.5 108.3,12.2 C108.3,12 108.2,11.9 108,11.8 C107.9,11.7 107.8,11.7 107.6,11.7 C107.7,11.7 107.6,11.7 107.6,11.7 L107.6,11.7 L107.6,11.7 Z" id="Path"></path>
                <path d="M97.3,18.2 C96.8,18.3 96.6,18.7 96.7,19.2 C96.8,19.7 96.8,20.2 96.9,20.7 C97,21.2 97.2,21.7 97.4,22.2 C97.7,22.7 98,23.2 98.3,23.6 C98.7,24.1 99.2,24.4 99.8,24.6 C100.1,24.7 100.4,24.7 100.6,24.8 C101,24.9 101.5,24.7 101.9,24.5 C102.4,24.3 102.8,23.9 103.2,23.5 C103.4,23.3 103.5,23 103.6,22.7 C103.7,22.5 103.8,22.2 103.9,21.9 C104,21.4 104.1,20.9 104.2,20.4 C104.2,19.9 104.3,19.4 104.2,19 C104.2,18.6 103.8,18.3 103.4,18.3 C102.9,18.3 102.5,18.6 102.5,19.1 C102.5,19.7 102.4,20.4 102.3,21 C102.2,21.4 102.1,21.8 101.9,22.1 C101.8,22.2 101.7,22.4 101.6,22.5 C101.5,22.6 101.5,22.6 101.4,22.7 C101.3,22.8 101.2,22.8 101.1,22.8 C101,22.8 101,22.8 100.9,22.8 C100.8,22.8 100.7,22.8 100.6,22.8 C100.4,22.8 100.3,22.7 100.1,22.6 C100,22.5 99.9,22.4 99.8,22.3 C99.5,22 99.2,21.6 98.9,21.2 C98.8,21 98.6,20.7 98.5,20.5 C98.4,20 98.3,19.4 98.3,18.9 C98.2,18.5 97.9,18.2 97.5,18.2 C97.4,18.2 97.3,18.2 97.3,18.2 L97.3,18.2 L97.3,18.2 Z" id="Path"></path>
                <path d="M117.4,19.2 C117.3,19.8 117.3,20.4 117.4,21 C117.5,21.5 117.6,21.9 117.8,22.4 C118,22.9 118.2,23.4 118.4,23.9 C118.6,24.2 118.8,24.5 119,24.7 C119.3,25 119.6,25.2 120,25.4 C120.6,25.7 121.3,25.7 122,25.5 C122.8,25.3 123.5,24.7 123.9,24 C124.2,23.4 124.4,22.8 124.5,22.1 C124.6,21.5 124.5,21 124.5,20.4 C124.5,20.1 124.4,19.7 124.4,19.4 C124.3,18.9 123.8,18.5 123.2,18.6 C122.9,18.7 122.7,18.8 122.6,19 C122.4,19.2 122.4,19.5 122.4,19.8 C122.4,20.1 122.4,20.3 122.4,20.6 C122.4,21.1 122.4,21.6 122.3,22.1 C122.2,22.3 122.2,22.6 122,22.8 C121.9,22.9 121.8,23.1 121.7,23.2 C121.7,23.2 121.6,23.3 121.6,23.3 C121.5,23.3 121.4,23.4 121.3,23.4 C121.2,23.4 121.1,23.4 121,23.5 C120.9,23.5 120.9,23.5 120.8,23.5 C120.7,23.5 120.6,23.4 120.6,23.4 C120.5,23.3 120.4,23.3 120.3,23.2 C120.1,23 120,22.9 119.9,22.7 C119.6,22.2 119.4,21.6 119.2,21.1 C119.1,20.9 119.1,20.6 119,20.4 C119,20.1 119,19.8 119.1,19.4 C119.1,18.9 118.8,18.5 118.3,18.5 C118.3,18.5 118.3,18.5 118.2,18.5 C117.8,18.4 117.4,18.8 117.4,19.2 L117.4,19.2 L117.4,19.2 Z" id="Shape"></path>
                <path d="M108.7,27.1 C108.5,27.6 108.4,28.1 108.5,28.6 C108.6,29.2 108.9,29.8 109.4,30.2 C109.7,30.4 110,30.6 110.4,30.7 C110.6,30.8 110.9,30.9 111.1,30.9 C111.2,30.9 111.3,30.9 111.4,31 C111.4,31.2 111.4,31.4 111.4,31.6 C111.4,31.9 111.3,32.3 111.3,32.6 C111.3,33.3 111.2,33.9 111.1,34.6 C111,35.2 111,35.8 110.9,36.4 C110.9,36.7 110.9,36.9 110.9,37.2 C110.9,37.5 110.9,37.8 110.9,38.1 C110.9,38.4 111,38.6 111.1,38.8 C111.3,39 111.5,39.1 111.8,39.2 C112.4,39.2 112.8,38.8 112.9,38.3 C113,37.9 113,37.4 112.9,37 C112.9,36.5 112.9,36 113,35.5 C113,35 113,34.5 113.1,34 C113.1,33.4 113.1,32.9 113,32.3 C113,32 113,31.7 113,31.3 C113,31.3 113,31.2 113,31.2 C113,31.2 113.1,31.2 113.1,31.2 C113.3,31.2 113.6,31.1 113.8,31.1 C114.1,31 114.4,30.9 114.6,30.8 C114.8,30.7 114.9,30.6 115.1,30.5 C115.2,30.4 115.4,30.2 115.5,30.1 C115.7,29.9 115.8,29.6 115.9,29.3 C116.1,28.7 116.2,28 115.9,27.4 C115.9,27.2 115.8,27.1 115.7,27 C115.5,26.8 115.3,26.6 115.1,26.4 C114.9,26.2 114.6,26 114.3,25.9 C113.8,25.7 113.2,25.6 112.7,25.5 C112.6,25.5 112.5,25.5 112.4,25.5 C110.9,25.3 109.3,25.7 108.7,27.1 L108.7,27.1 L108.7,27.1 Z" id="Path"></path>
                <path d="M108.8,35.8 C108.4,36 108.2,36.5 108.4,36.9 C108.5,37.2 108.6,37.5 108.8,37.8 C109,38.2 109.3,38.5 109.6,38.8 C110.1,39.2 110.6,39.5 111.2,39.7 C111.4,39.7 111.6,39.8 111.8,39.8 C112,39.8 112.2,39.8 112.4,39.8 C112.9,39.8 113.3,39.6 113.7,39.4 C114.1,39.2 114.4,38.9 114.7,38.7 C115.1,38.3 115.4,37.9 115.6,37.4 C115.7,37 115.6,36.6 115.3,36.4 C114.9,36.1 114.3,36.2 114.1,36.6 C114.1,36.7 114,36.7 114,36.8 C113.7,37.1 113.4,37.3 113.1,37.5 C112.9,37.6 112.7,37.7 112.4,37.8 C112.3,37.8 112.1,37.9 112,37.9 C111.8,37.9 111.6,37.9 111.4,37.8 C111.3,37.8 111.1,37.7 111,37.7 C110.8,37.6 110.6,37.5 110.4,37.3 C110.3,37.2 110.3,37.2 110.2,37.1 C110,36.8 109.9,36.5 109.8,36.1 C109.7,35.8 109.3,35.6 109,35.6 C109,35.7 108.9,35.8 108.8,35.8 L108.8,35.8 L108.8,35.8 Z M113.1,37.6 C113.1,37.6 113,37.7 113,37.7 C113,37.6 113,37.6 113.1,37.6 L113.1,37.6 L113.1,37.6 Z" id="Shape"></path>
                <path d="M79.9,28.8 C79.9,29 80,29.2 80.2,29.4 C80.4,29.6 80.6,29.6 80.8,29.6 C82.1,29.6 83.5,29.6 84.8,29.7 C86.1,29.8 87.3,29.8 88.6,29.9 C89.9,30 91.1,30 92.4,30.1 C93.6,30.2 94.7,30.2 95.9,30.3 C96.7,30.3 97.4,30.4 98.2,30.4 C98.1,30.4 98.1,30.4 98,30.4 C98.5,30.4 99,30.5 99.5,30.5 C99.7,30.5 99.9,30.5 100.1,30.4 C100.3,30.3 100.4,30.1 100.5,29.8 C100.5,29.6 100.5,29.3 100.4,29.2 C100.3,29 100.1,28.8 99.8,28.8 C97.3,28.6 94.9,28.4 92.4,28.3 C92.4,28.3 92.4,28.3 92.4,28.3 C92.2,28.3 92.1,28.3 91.9,28.3 C91.9,28.3 91.9,28.3 91.9,28.3 C91.8,28.3 91.6,28.3 91.5,28.3 C91.5,28.3 91.6,28.3 91.6,28.3 C91.5,28.3 91.3,28.3 91.2,28.3 C91.3,28.3 91.3,28.3 91.4,28.3 C89.6,28.2 87.8,28.1 86,28 C84.2,27.9 82.5,27.9 80.7,27.9 C80.7,27.9 80.7,27.9 80.7,27.9 C80.2,27.9 79.9,28.3 79.9,28.8 L79.9,28.8 L79.9,28.8 Z" id="Shape"></path>
                <path d="M97.6,33.3 C96.3,33.5 95,33.6 93.8,33.9 C93.2,34 92.6,34.2 92.1,34.3 C91.4,34.5 90.7,34.7 90,34.9 C89.4,35.1 88.8,35.3 88.2,35.4 C87.7,35.5 87.2,35.7 86.7,35.9 C85.6,36.3 84.4,36.6 83.3,37 C81,37.8 78.8,38.6 76.5,39.4 C76.1,39.6 75.8,40 76,40.5 C76.1,40.9 76.6,41.2 77.1,41 C79.6,40.1 82.1,39.3 84.5,38.4 C86.7,37.6 89,36.9 91.3,36.3 C91.8,36.2 92.4,36 92.9,35.9 C93.5,35.8 94.1,35.6 94.7,35.5 C95.1,35.4 95.5,35.3 95.9,35.3 C96.5,35.2 97.2,35.1 97.8,35 C98.2,34.9 98.6,34.6 98.6,34.1 C98.5,33.6 98.1,33.3 97.6,33.3 C97.7,33.3 97.6,33.3 97.6,33.3 L97.6,33.3 L97.6,33.3 Z" id="Path"></path>
                <path d="M97.4,37.4 C96.5,38.1 95.6,38.7 94.8,39.4 C93.8,40.1 92.8,40.9 91.8,41.6 C91,42.2 90.1,42.8 89.3,43.5 C88.3,44.3 87.4,45.1 86.4,45.9 C86.2,46.1 86.1,46.2 86,46.5 C86,46.7 86,47 86.1,47.1 C86.2,47.3 86.4,47.4 86.7,47.5 C86.9,47.5 87.2,47.5 87.3,47.4 C88.2,46.6 89.2,45.8 90.1,45.1 C91,44.4 91.8,43.8 92.7,43.1 C93.7,42.4 94.6,41.6 95.6,40.9 C96.5,40.2 97.4,39.6 98.3,38.9 C98.5,38.8 98.6,38.6 98.7,38.4 C98.7,38.2 98.7,38 98.6,37.8 C98.4,37.6 98.2,37.4 97.9,37.4 C97.7,37.3 97.6,37.3 97.4,37.4 L97.4,37.4 L97.4,37.4 Z" id="Path"></path>
                <path d="M62.4,64.9 C62.4,65.3 62.4,65.7 62.4,66.1 C62.4,66.5 62.6,66.8 63,66.8 C63.4,66.8 63.7,66.6 63.7,66.2 C63.7,65.8 63.7,65.4 63.8,65 C63.8,64.6 63.6,64.3 63.2,64.3 C63.2,64.3 63.2,64.3 63.2,64.3 C62.7,64.3 62.4,64.6 62.4,64.9 L62.4,64.9 L62.4,64.9 Z" id="Path"></path>
                <path d="M59.7,70.1 C59.5,70.2 59.3,70.4 59.3,70.6 C59.2,71.1 59.1,71.6 59,72.2 C59,72.4 59.1,72.6 59.2,72.8 C59.3,73 59.5,73.1 59.8,73.1 C60,73.1 60.2,73.1 60.4,72.9 C60.6,72.7 60.7,72.6 60.7,72.3 C60.8,72 60.8,71.8 60.9,71.5 C60.9,71.5 60.9,71.5 60.9,71.5 C60.9,71.4 61,71.3 61,71.1 C61,70.9 61.1,70.7 61,70.5 C60.9,70.3 60.7,70.1 60.5,70.1 C60.4,70.1 60.3,70 60.2,70 C59.9,70 59.8,70.1 59.7,70.1 L59.7,70.1 L59.7,70.1 Z" id="Shape"></path>
                <path d="M54.6,79.3 C54.6,79.7 54.6,80.1 54.6,80.5 C54.6,80.7 54.6,80.9 54.8,81.1 C54.9,81.3 55.2,81.4 55.4,81.4 C55.8,81.4 56.3,81.1 56.3,80.6 C56.3,80.2 56.3,79.8 56.3,79.4 C56.3,79.2 56.3,79 56.1,78.8 C56,78.6 55.7,78.5 55.5,78.5 C55.5,78.5 55.5,78.5 55.4,78.5 C55.1,78.6 54.6,78.9 54.6,79.3 L54.6,79.3 L54.6,79.3 Z" id="Path"></path>
                <path d="M61.7,78.3 C61.7,78.7 61.6,79.1 61.6,79.4 C61.6,79.8 61.9,80.3 62.4,80.3 C62.9,80.3 63.2,80 63.3,79.5 C63.3,79.1 63.4,78.7 63.4,78.4 C63.5,78 63.1,77.5 62.6,77.5 C62.6,77.5 62.6,77.5 62.5,77.5 C62.1,77.6 61.7,77.9 61.7,78.3 L61.7,78.3 L61.7,78.3 Z" id="Path"></path>
                <path d="M58,86 C57.8,86.1 57.8,86.3 57.7,86.5 C57.6,87 57.5,87.5 57.4,88 C57.3,88.3 57.6,88.6 57.9,88.7 C58.1,88.8 58.3,88.8 58.4,88.7 C58.6,88.6 58.7,88.5 58.8,88.3 C58.9,87.8 59,87.2 59.1,86.7 C59.1,86.5 59,86.3 58.9,86.2 C58.8,86.1 58.6,86 58.4,85.9 C58.4,85.9 58.4,85.9 58.3,85.9 C58.3,85.8 58.1,85.9 58,86 L58,86 L58,86 Z" id="Path"></path>
                <path d="M51.9,89.6 C51.9,90.2 51.8,90.7 51.8,91.3 C51.8,91.7 52.1,92.1 52.5,92.1 C52.9,92.1 53.3,91.8 53.3,91.4 C53.3,90.8 53.4,90.3 53.4,89.7 C53.4,89.3 53.1,88.9 52.7,88.9 C52.7,88.9 52.7,88.9 52.6,88.9 C52.3,88.9 52,89.2 51.9,89.6 L51.9,89.6 L51.9,89.6 Z" id="Path"></path>
                <path d="M117.9,66.3 C117.9,66.7 117.9,67.2 117.9,67.6 C117.9,67.8 117.9,67.9 118,68.1 C118.1,68.2 118.3,68.3 118.5,68.3 C118.7,68.3 118.8,68.3 119,68.2 C119.1,68.1 119.2,67.9 119.2,67.7 C119.2,67.3 119.2,66.8 119.2,66.4 C119.2,66.2 119.2,66.1 119.1,65.9 C119,65.8 118.8,65.7 118.6,65.7 C118.6,65.7 118.6,65.7 118.6,65.7 C118.2,65.7 117.9,66 117.9,66.3 L117.9,66.3 L117.9,66.3 Z" id="Path"></path>
                <path d="M122.3,67.1 C122.1,67.1 121.9,67.3 121.8,67.4 C121.7,67.6 121.6,67.8 121.7,68 C121.7,68.5 121.8,68.9 121.8,69.4 C121.8,69.8 122.3,70.1 122.7,70.1 C122.9,70.1 123.1,69.9 123.2,69.8 C123.3,69.6 123.4,69.4 123.3,69.2 C123.3,68.7 123.2,68.3 123.2,67.8 C123.2,67.4 122.8,67.1 122.4,67.1 C122.4,67.1 122.4,67.1 122.3,67.1 L122.3,67.1 L122.3,67.1 Z" id="Path"></path>
                <path d="M118.3,73.2 C118.3,73.8 118.3,74.4 118.3,75 C118.3,75.2 118.5,75.4 118.6,75.5 C118.8,75.6 119,75.7 119.2,75.6 C119.4,75.6 119.6,75.5 119.7,75.3 C119.8,75.1 119.8,75 119.8,74.7 C119.8,74.7 119.8,74.7 119.8,74.6 C119.8,74.1 119.8,73.7 119.8,73.2 C119.8,73 119.8,72.8 119.6,72.7 C119.5,72.6 119.3,72.5 119.1,72.4 C119.1,72.4 119.1,72.4 119,72.4 C118.6,72.5 118.3,72.8 118.3,73.2 L118.3,73.2 L118.3,73.2 Z" id="Path"></path>
                <path d="M123.6,77.6 C123.6,77.9 123.6,78.2 123.6,78.5 C123.6,78.8 123.6,79.1 123.6,79.5 C123.6,79.7 123.6,79.9 123.8,80.1 C123.9,80.3 124.1,80.4 124.4,80.4 C124.8,80.4 125.2,80.1 125.3,79.7 C125.3,79.4 125.3,79.1 125.4,78.8 C125.4,78.5 125.4,78.1 125.4,77.8 C125.4,77.6 125.4,77.4 125.2,77.2 C125.1,77 124.8,76.9 124.6,76.9 C124.6,76.9 124.6,76.9 124.5,76.9 C124.1,76.9 123.6,77.2 123.6,77.6 L123.6,77.6 L123.6,77.6 Z" id="Path"></path>
                <path d="M119.8,80.4 C119.6,80.4 119.4,80.6 119.3,80.7 C119.2,80.9 119.1,81.1 119.2,81.3 C119.2,81.9 119.3,82.4 119.3,83 C119.3,83.5 119.9,83.8 120.3,83.7 C120.8,83.6 121,83.2 121,82.7 C120.9,82.1 120.9,81.6 120.8,81 C120.8,80.8 120.6,80.6 120.5,80.5 C120.4,80.4 120.2,80.3 120,80.3 C119.9,80.4 119.8,80.4 119.8,80.4 L119.8,80.4 L119.8,80.4 Z" id="Path"></path>
                <path d="M117.4,95.2 C117.1,95.3 117.1,95.6 117.2,95.9 C117.4,96.4 117.6,96.9 117.8,97.4 C118,97.9 118.1,98.4 118.3,98.9 C118.7,99.9 119.1,100.9 119.4,102 C119.4,102 119.4,102 119.4,102 C119.7,103 120,104 120.1,105.1 C120.3,106.2 120.5,107.3 120.7,108.5 C120.9,109.6 121.2,110.7 121.4,111.9 C121.6,113.1 121.8,114.3 122,115.5 C122.3,117.8 122.5,120.2 122.7,122.5 C122.7,122.5 122.7,122.5 122.7,122.5 C122.7,123.6 122.8,124.7 122.8,125.8 C122.8,126.4 122.9,127 122.9,127.6 C122.9,128.1 122.9,128.7 122.9,129.2 C122.9,130.3 122.9,131.4 122.9,132.5 C122.9,133.1 122.9,133.7 122.8,134.3 C122.8,134.8 122.7,135.4 122.7,135.9 C122.6,136.9 122.5,137.9 122.4,138.8 C122.3,139.3 122.3,139.8 122.2,140.3 C122.1,140.8 122.1,141.2 122,141.7 C121.7,143.7 121.4,145.6 121,147.6 C121,147.6 121,147.5 121,147.5 C120.8,148.5 120.5,149.5 120.3,150.5 C120,151.5 119.7,152.5 119.4,153.5 C119.3,154 119.1,154.4 118.9,154.9 C118.7,155.4 118.5,155.9 118.3,156.3 C117.9,157.3 117.4,158.2 117,159.1 C116.9,159.3 116.8,159.5 116.7,159.7 C116.6,159.9 116.4,160.2 116.3,160.4 C116.1,160.7 115.9,160.9 115.8,161.2 C115.6,161.4 115.4,161.6 115.2,161.9 C114.7,162.4 114.2,162.9 113.8,163.4 C113.7,163.5 113.6,163.6 113.6,163.8 C113.6,163.9 113.6,164.1 113.7,164.2 C113.9,164.4 114.3,164.5 114.5,164.3 C115,163.8 115.5,163.3 116,162.8 C116.4,162.4 116.8,161.9 117.2,161.5 C117.9,160.6 118.5,159.5 119,158.5 C119.5,157.5 120.1,156.4 120.5,155.4 C120.9,154.3 121.3,153.2 121.6,152.1 C121.8,151.6 121.9,151 122.1,150.5 C122.2,150 122.4,149.5 122.5,149 C122.8,147.8 123,146.7 123.3,145.5 C123.7,143.2 124,141 124.3,138.7 C124.4,137.7 124.5,136.7 124.6,135.7 C124.6,135.2 124.7,134.7 124.7,134.2 C124.7,133.7 124.7,133.2 124.7,132.7 C124.7,131.7 124.7,130.8 124.7,129.8 C124.7,128.7 124.7,127.7 124.6,126.6 C124.6,126.1 124.6,125.5 124.5,125 C124.5,124.4 124.4,123.8 124.4,123.2 C124.4,122 124.2,120.8 124.1,119.6 C124,119 124,118.5 123.9,117.9 C123.8,117.3 123.8,116.8 123.7,116.2 C123.5,115 123.4,113.8 123.2,112.6 C123.1,112 123,111.4 122.8,110.9 C122.7,110.3 122.5,109.8 122.4,109.2 C122.3,108.6 122.2,108.1 122.1,107.5 C122,106.9 121.9,106.4 121.7,105.8 C121.6,105.3 121.5,104.7 121.3,104.2 C121.2,103.6 121,103.1 120.8,102.5 C120.5,101.4 120,100.4 119.5,99.3 C119.3,98.7 119,98.2 118.8,97.6 C118.6,97 118.3,96.3 118.1,95.7 C118,95.5 117.8,95.4 117.6,95.4 C117.5,95.2 117.4,95.2 117.4,95.2 L117.4,95.2 L117.4,95.2 Z M120.8,147.7 C120.8,147.7 120.8,147.6 120.8,147.6 C120.8,147.7 120.8,147.7 120.8,147.7 L120.8,147.7 L120.8,147.7 Z" id="Shape"></path>
                <path d="M136.2,136.8 C136.1,136.9 135.9,137.1 135.9,137.3 C135.9,137.6 135.9,137.9 135.9,138.2 C135.9,138.6 135.9,138.9 135.8,139.3 C135.8,139.7 136.1,140 136.4,140.1 C136.8,140.1 137.1,139.8 137.2,139.5 C137.2,139.1 137.2,138.8 137.3,138.4 C137.3,138.1 137.3,137.8 137.3,137.5 C137.3,137.3 137.3,137.1 137.1,137 C137,136.9 136.8,136.8 136.6,136.7 C136.6,136.7 136.6,136.7 136.5,136.7 C136.5,136.7 136.3,136.7 136.2,136.8 L136.2,136.8 L136.2,136.8 Z" id="Path"></path>
                <path d="M132.6,141.6 C132.5,142.1 132.5,142.7 132.4,143.2 C132.4,143.6 132.7,144 133.1,144 C133.5,144 133.9,143.7 133.9,143.3 C134,142.8 134,142.2 134.1,141.7 C134.1,141.3 133.8,140.9 133.4,140.9 C133.4,140.9 133.4,140.9 133.3,140.9 C132.9,140.8 132.6,141.1 132.6,141.6 L132.6,141.6 L132.6,141.6 Z" id="Path"></path>
                <path d="M134.2,149.3 C134.1,149.9 134,150.6 133.9,151.2 C133.9,151.4 134,151.6 134.1,151.7 C134.2,151.9 134.4,152 134.6,152 C134.8,152 135,152 135.1,151.8 C135.3,151.7 135.3,151.5 135.4,151.3 C135.5,150.7 135.6,150 135.7,149.4 C135.8,149 135.4,148.6 135,148.6 C135,148.6 135,148.6 134.9,148.6 C134.6,148.6 134.3,148.9 134.2,149.3 L134.2,149.3 L134.2,149.3 Z" id="Path"></path>
                <path d="M129.6,152.5 C129.6,152.8 129.5,153.1 129.5,153.4 C129.5,153.8 129.8,154.2 130.2,154.2 C130.6,154.2 131,153.9 131.1,153.5 C131.1,153.2 131.2,152.9 131.2,152.6 C131.2,152.2 130.9,151.8 130.5,151.7 C130.5,151.7 130.5,151.7 130.4,151.7 C130,151.8 129.7,152.1 129.6,152.5 L129.6,152.5 L129.6,152.5 Z" id="Path"></path>
                <path d="M83.8,102.3 C83.6,102.6 83.7,103.1 84,103.3 C84.4,103.6 84.9,104 85.3,104.3 C85.5,104.5 85.7,104.7 85.9,105 C86.1,105.2 86.2,105.4 86.4,105.7 C86.4,105.6 86.3,105.6 86.3,105.5 C86.4,105.6 86.5,105.8 86.6,105.9 C86.6,105.9 86.6,105.8 86.5,105.8 C87.2,107.2 87.8,108.6 88.3,110.1 C88.9,112.5 89.1,115 89.2,117.4 C89.2,117.3 89.2,117.2 89.2,117.1 C89.2,117.3 89.2,117.6 89.2,117.8 C89.2,117.7 89.2,117.6 89.2,117.5 C89.2,117.8 89.2,118.1 89.2,118.4 C89.2,119.5 89.3,120.6 89.2,121.8 C89.2,123 89.1,124.2 89,125.4 C88.9,126.6 88.8,127.8 88.6,129 C88.4,130.2 88.3,131.4 88.1,132.6 C87.8,134.2 87.6,135.8 87.2,137.3 C87.2,137.2 87.2,137.2 87.2,137.1 C87.2,137.2 87.2,137.3 87.1,137.4 C87.1,137.3 87.1,137.3 87.1,137.2 C87.1,137.3 87.1,137.4 87,137.4 C87,137.4 87,137.4 87,137.4 C87,137.4 87,137.4 87,137.4 C87,137.5 86.9,137.7 86.9,137.8 C86.9,137.7 86.9,137.6 87,137.5 C86.8,138.3 86.6,139 86.4,139.8 C86.2,140.6 85.9,141.4 85.6,142.2 C85.3,143 85,143.7 84.6,144.5 C84.2,145.3 83.8,146.1 83.4,146.9 C83,147.7 82.5,148.5 82.1,149.2 C82,149.4 81.9,149.6 81.8,149.7 C81.7,150 81.6,150.4 81.8,150.7 C81.9,151 82.3,151.2 82.6,151.3 C83,151.3 83.3,151.1 83.7,150.9 C84.1,150.7 84.4,150.5 84.8,150.4 C85.4,150.2 86,150.1 86.6,150.1 C87.5,150.1 88.4,150.2 89.2,150.4 C89.6,150.5 90,150.7 90.4,150.9 C91,151.2 91.5,151.6 92,152 C92.6,152.6 93.2,153.3 93.7,154 C94,154.5 94.2,155 94.4,155.5 C94.4,155.6 94.5,155.8 94.5,155.9 C94.6,156.1 94.7,156.3 94.9,156.5 C95.1,156.6 95.3,156.7 95.6,156.6 C96,156.5 96.4,156 96.3,155.6 C96.2,155.2 96.1,154.9 96,154.5 C95.9,154.1 95.7,153.8 95.5,153.5 C95.2,152.9 94.7,152.3 94.3,151.8 C93.8,151.2 93.3,150.7 92.7,150.2 C92,149.6 91.2,149.2 90.4,148.9 C90,148.8 89.6,148.7 89.2,148.6 C88.8,148.5 88.4,148.5 88.1,148.4 C87.3,148.3 86.5,148.3 85.7,148.4 C85.4,148.4 85,148.5 84.7,148.6 C84.9,148.3 85,148 85.2,147.8 C85.8,146.7 86.3,145.7 86.8,144.6 C87,144.1 87.3,143.5 87.5,143 C87.7,142.5 87.9,141.9 88,141.4 C88.4,140.2 88.7,139 89,137.8 C89,137.9 89,138 88.9,138.1 C89.4,135.7 89.8,133.3 90.2,130.8 C90.4,129.6 90.6,128.4 90.7,127.2 C90.8,126 91,124.8 91,123.7 C91.2,121.3 91.1,118.8 90.9,116.4 C90.8,115.2 90.7,114 90.6,112.9 C90.5,112.3 90.4,111.7 90.3,111.1 C90.2,110.8 90.2,110.6 90.1,110.3 C90,110 89.9,109.7 89.8,109.4 C89.3,108.1 88.7,106.8 88,105.6 C87.8,105.3 87.6,105 87.4,104.7 C87.3,104.6 87.2,104.4 87.1,104.3 C86.9,104 86.6,103.8 86.4,103.5 C86.1,103.3 85.9,103 85.6,102.8 C85.3,102.6 85,102.3 84.7,102.1 C84.6,102 84.4,102 84.3,102 C84.1,102 83.9,102.1 83.8,102.3 L83.8,102.3 L83.8,102.3 Z M92.1,152.1 C92.1,152.1 92.2,152.2 92.2,152.2 C92.2,152.2 92.2,152.1 92.1,152.1 L92.1,152.1 L92.1,152.1 Z" id="Shape"></path>
                <path d="M82.7,116.2 C82.6,116.2 82.4,116.3 82.4,116.4 C82.3,116.5 82.3,116.6 82.3,116.8 C82.3,117.2 82.4,117.6 82.4,118 C82.4,118 82.4,118.1 82.4,118.1 C82.4,118.2 82.4,118.4 82.5,118.5 C82.6,118.6 82.7,118.7 82.9,118.7 C83,118.7 83.2,118.7 83.3,118.6 C83.4,118.5 83.5,118.4 83.5,118.2 C83.5,117.7 83.4,117.1 83.4,116.6 C83.3,116.3 83,116.2 82.7,116.2 C82.8,116.2 82.7,116.2 82.7,116.2 L82.7,116.2 L82.7,116.2 Z" id="Path"></path>
                <path d="M79.3,120.9 C79,121 78.8,121.3 78.8,121.6 C78.9,122.1 78.9,122.6 79,123.1 C79,123.4 79.4,123.6 79.7,123.6 C80,123.5 80.2,123.2 80.2,122.9 C80.1,122.4 80.1,121.9 80,121.4 C80,121.1 79.7,120.9 79.4,120.9 C79.4,120.9 79.3,120.9 79.3,120.9 L79.3,120.9 L79.3,120.9 Z" id="Path"></path>
                <path d="M82.8,124.2 C82.7,124.3 82.5,124.5 82.5,124.7 C82.5,125.4 82.6,126.1 82.5,126.7 C82.5,127.1 82.8,127.5 83.2,127.5 C83.6,127.5 84,127.2 84,126.8 C84,126.1 84,125.4 84,124.8 C84,124.6 84,124.4 83.8,124.3 C83.7,124.2 83.5,124.1 83.3,124 C83.3,124 83.3,124 83.2,124 C83.1,124 83,124.1 82.8,124.2 L82.8,124.2 L82.8,124.2 Z" id="Path"></path>
                <path d="M79.7,129.5 C79.5,130 79.4,130.6 79.3,131.2 C79.3,131.5 79.5,131.8 79.8,131.9 C80,132 80.2,132 80.4,131.9 C80.6,131.8 80.7,131.7 80.8,131.5 C80.8,131.4 80.9,131.3 80.9,131.1 C81,130.7 81.1,130.4 81.2,130 C81.3,129.6 81.1,129.2 80.8,129.1 C80.7,129.1 80.6,129.1 80.6,129.1 C80,129.1 79.7,129.2 79.7,129.5 L79.7,129.5 L79.7,129.5 Z M80.7,131 C80.7,131 80.7,131.1 80.7,131.1 C80.7,131.1 80.7,131.1 80.7,131 L80.7,131 L80.7,131 Z" id="Shape"></path>
                <path d="M74.8,132.2 C74.8,132.6 74.8,132.9 74.7,133.3 C74.7,133.6 74.9,133.9 75.2,133.9 C75.5,133.9 75.8,133.7 75.8,133.4 C75.8,133 75.8,132.7 75.9,132.3 C75.9,132 75.7,131.7 75.4,131.7 C75.4,131.7 75.4,131.7 75.4,131.7 C75.1,131.6 74.9,131.9 74.8,132.2 L74.8,132.2 L74.8,132.2 Z" id="Path"></path>
                <path d="M79.3,140.7 C79.3,141.4 79.2,142.1 79.1,142.8 C79,143.3 79.5,143.7 79.9,143.8 C80.4,143.8 80.8,143.5 80.9,143 C81,142.3 81,141.6 81,140.9 C81,140.4 80.7,140 80.2,139.9 C80.2,139.9 80.2,139.9 80.1,139.9 C79.8,139.9 79.4,140.3 79.3,140.7 L79.3,140.7 L79.3,140.7 Z" id="Path"></path>
                <path d="M36.2,140.9 C36.1,141 36,141.1 35.9,141.2 C35.9,141.3 35.9,141.5 35.9,141.6 C36.1,142.2 36.4,142.9 36.7,143.5 C36.9,144 37.2,144.5 37.5,145 C37.6,145.2 37.8,145.5 37.9,145.7 C38,146 38.2,146.3 38.4,146.6 C38.7,147 39,147.4 39.2,147.8 C39.2,147.8 39.2,147.8 39.2,147.7 C39.2,147.7 39.2,147.8 39.3,147.8 C39.3,147.8 39.3,147.8 39.3,147.8 C39.3,147.8 39.3,147.8 39.3,147.8 C39.4,148 39.6,148.2 39.7,148.4 C39.8,148.6 40,148.8 40.1,149 C40.4,149.4 40.8,149.8 41.1,150.3 C41.5,150.8 41.8,151.2 42.1,151.7 C42.4,152.1 42.7,152.5 43,152.9 C43.6,153.8 44.4,154.6 45.1,155.4 C45.8,156.2 46.6,157.1 47.4,157.9 C47.8,158.3 48.2,158.7 48.6,159.1 C48.8,159.3 49,159.5 49.3,159.7 C49.5,159.9 49.7,160.2 50,160.4 C50.5,160.9 51,161.4 51.5,161.9 C51.7,162.1 52,162.3 52.2,162.5 C52.5,162.7 52.8,163 53.2,163.2 C53.4,163.4 53.8,163.3 53.9,163.1 C54.1,162.8 54,162.5 53.8,162.4 C53.3,162 52.7,161.6 52.2,161.2 C51.8,160.8 51.4,160.4 51,160 C50.6,159.6 50.3,159.2 49.9,158.8 C49.2,158 48.4,157.3 47.8,156.5 C47.1,155.7 46.4,154.8 45.6,154 C45.2,153.6 44.8,153.2 44.5,152.7 C44.2,152.3 43.9,151.9 43.5,151.4 C43.2,151 42.9,150.5 42.5,150.1 C42.1,149.6 41.7,149.2 41.4,148.7 C41.2,148.5 41.1,148.3 40.9,148.1 C40.8,147.9 40.6,147.7 40.5,147.5 C40.2,147.1 40,146.7 39.7,146.3 C39.5,145.9 39.2,145.6 39,145.2 C38.9,145 38.8,144.8 38.7,144.6 C38.6,144.4 38.4,144.2 38.3,144 C38.1,143.6 37.9,143.2 37.7,142.8 C37.4,142.3 37.2,141.8 36.9,141.2 C36.8,141 36.6,140.9 36.4,140.9 C36.4,140.8 36.3,140.8 36.2,140.9 L36.2,140.9 L36.2,140.9 Z" id="Shape"></path>
                <path d="M19.3,151.9 C19.1,152.2 19.2,152.6 19.5,152.8 C20.1,153.1 20.6,153.5 21.2,153.9 C21.5,154.1 21.9,154 22.1,153.7 C22.3,153.4 22.2,153 21.9,152.8 C21.4,152.4 20.8,152.1 20.2,151.7 C20.1,151.6 20,151.6 19.9,151.6 C19.7,151.6 19.5,151.7 19.3,151.9 L19.3,151.9 L19.3,151.9 Z" id="Path"></path>
                <path d="M19.2,157.4 C18.9,157.6 18.9,158.1 19.1,158.3 C19.6,158.8 20.1,159.3 20.7,159.7 C21,159.9 21.4,159.8 21.6,159.5 C21.8,159.2 21.7,158.8 21.4,158.6 C21.2,158.5 21,158.3 20.9,158.2 C20.6,157.9 20.3,157.7 20.1,157.4 C20,157.3 19.8,157.2 19.6,157.2 C19.5,157.2 19.3,157.2 19.2,157.4 L19.2,157.4 L19.2,157.4 Z" id="Path"></path>
                <path d="M12.9,151.7 C12.7,152 12.8,152.5 13.1,152.7 C13.3,152.9 13.6,153 13.8,153.2 C14.1,153.4 14.6,153.3 14.8,153 C15,152.7 14.9,152.2 14.6,152 C14.4,151.8 14.1,151.7 13.9,151.5 C13.8,151.4 13.6,151.4 13.5,151.4 C13.3,151.4 13.1,151.5 12.9,151.7 L12.9,151.7 L12.9,151.7 Z" id="Path"></path>
                <path d="M11.4,155.1 C11.2,155.1 11,155.2 10.9,155.4 C10.8,155.6 10.8,155.7 10.8,155.9 C10.8,156.1 11,156.2 11.1,156.4 C11.4,156.6 11.7,156.9 12,157.1 C12.3,157.3 12.8,157.2 13,156.9 C13.1,156.7 13.1,156.6 13.1,156.4 C13.1,156.2 12.9,156.1 12.8,155.9 C12.5,155.7 12.2,155.4 11.9,155.2 C11.8,155.1 11.7,155.1 11.5,155.1 C11.5,155.1 11.5,155.1 11.4,155.1 L11.4,155.1 L11.4,155.1 Z" id="Path"></path>
                <path d="M5.3,148 C5.1,148.3 5.2,148.7 5.5,149 C5.9,149.3 6.4,149.6 6.8,149.9 C7.1,150.1 7.6,150 7.8,149.7 C8,149.4 7.9,149 7.6,148.7 C7.2,148.4 6.7,148.1 6.3,147.8 C6.2,147.7 6.1,147.7 5.9,147.7 C5.7,147.7 5.5,147.8 5.3,148 L5.3,148 L5.3,148 Z" id="Path"></path>
                <path d="M3.9,150.2 C3.7,150.3 3.6,150.6 3.7,150.8 C4,151.3 4.3,151.8 4.6,152.2 C4.8,152.4 5.1,152.4 5.3,152.2 C5.5,152 5.5,151.7 5.3,151.5 C5.2,151.3 5,151.2 4.9,151 C4.8,150.8 4.6,150.6 4.5,150.3 C4.4,150.2 4.4,150.1 4.2,150.1 C4.2,150.1 4.1,150.1 4,150.1 C4.1,150.1 4,150.1 3.9,150.2 L3.9,150.2 L3.9,150.2 Z" id="Path"></path>
                <path d="M7.3,46.4 C7,46.6 6.8,47 7,47.3 C7.2,47.7 7.4,48.1 7.6,48.5 C7.8,48.8 8.2,49 8.5,48.8 C8.8,48.6 9,48.2 8.8,47.9 C8.6,47.5 8.4,47.1 8.2,46.7 C8.1,46.5 7.8,46.3 7.6,46.3 C7.5,46.3 7.4,46.3 7.3,46.4 L7.3,46.4 L7.3,46.4 Z" id="Path"></path>
                <path d="M4.6,49.7 C4.4,49.7 4.3,49.8 4.2,50 C4.1,50.1 4.1,50.3 4.1,50.5 C4.2,50.8 4.3,51.1 4.4,51.5 C4.5,51.7 4.5,51.8 4.7,51.9 C4.8,52 5,52 5.2,52 C5.5,51.9 5.8,51.6 5.7,51.3 C5.6,51 5.5,50.7 5.4,50.3 C5.3,50.1 5.3,50 5.1,49.9 C5,49.8 4.9,49.8 4.8,49.8 C4.7,49.6 4.6,49.6 4.6,49.7 L4.6,49.7 L4.6,49.7 Z" id="Path"></path>
                <path d="M9.3,53.7 C9.1,53.8 8.9,54 8.8,54.2 C8.7,54.4 8.8,54.6 8.8,54.9 C8.8,54.9 8.8,55 8.8,55 C8.8,55 8.8,54.9 8.8,54.9 C9,55.6 9.2,56.4 9.4,57.2 C9.5,57.7 9.9,58 10.4,57.9 C10.9,57.8 11.2,57.3 11.1,56.9 C10.9,56 10.6,55.1 10.3,54.2 C10.2,54 10,53.8 9.8,53.7 C9.7,53.7 9.6,53.7 9.5,53.7 C9.6,53.6 9.4,53.6 9.3,53.7 L9.3,53.7 L9.3,53.7 Z M8.9,54.9 C8.9,54.9 8.9,54.8 8.9,54.8 C8.9,54.8 8.9,54.8 8.9,54.9 L8.9,54.9 L8.9,54.9 Z" id="Shape"></path>
                <path d="M7.3,59.1 C6.9,59.2 6.6,59.6 6.7,60 C6.8,60.4 6.9,60.8 6.9,61.2 C7,61.6 7.4,61.9 7.8,61.8 C8.2,61.7 8.5,61.3 8.4,60.9 C8.3,60.5 8.3,60.1 8.2,59.7 C8.1,59.4 7.8,59.1 7.5,59.1 C7.4,59 7.3,59 7.3,59.1 L7.3,59.1 L7.3,59.1 Z" id="Path"></path>
                <path d="M11.1,62.6 C10.7,62.7 10.5,63 10.6,63.4 C10.7,64.1 10.8,64.7 10.9,65.4 C11,65.8 11.3,66 11.7,65.9 C12.1,65.8 12.3,65.5 12.2,65.1 C12.1,64.4 12,63.8 11.9,63.1 C11.9,62.8 11.5,62.6 11.2,62.6 C11.2,62.6 11.1,62.6 11.1,62.6 L11.1,62.6 L11.1,62.6 Z" id="Path"></path>
                <path d="M7.7,69.2 C7.4,69.3 7.3,69.5 7.3,69.8 C7.3,70 7.4,70.2 7.4,70.4 C7.5,70.7 7.7,70.8 8,70.8 C8.3,70.7 8.4,70.5 8.4,70.2 C8.4,70 8.3,69.8 8.3,69.6 C8.2,69.4 8,69.2 7.7,69.2 C7.8,69.2 7.7,69.2 7.7,69.2 L7.7,69.2 L7.7,69.2 Z" id="Path"></path>
                <path d="M1.1,41.5 C0.9,41.6 0.7,41.9 0.9,42.2 C1.1,42.5 1.2,42.9 1.4,43.2 C1.5,43.5 1.8,43.6 2.1,43.4 C2.4,43.3 2.5,43 2.3,42.7 C2.1,42.4 2,42 1.8,41.7 C1.7,41.5 1.5,41.4 1.3,41.4 C1.2,41.4 1.2,41.4 1.1,41.5 L1.1,41.5 L1.1,41.5 Z" id="Path"></path>
            </g>
        </g>
    </g>
</svg>